<?xml version="1.0" encoding="UTF-8" standalone="no"?>
<svg width="800" height="600" viewBox="0 0 800 600"
     xmlns="http://www.w3.org/2000/svg">

  <!-- Planet -->
  <circle cx="420" cy="200" r="110" fill="#000000"/>
  
  <!-- Planet Ring -->
  <ellipse cx="420" cy="210" rx="170" ry="50"
           fill="none" stroke="#E8E2D6" stroke-width="18"/>

  <!-- Stars -->
  <polygon points="400,150 410,170 430,175 410,180 400,200 390,180 370,175 390,170"
           fill="white"/>
  <polygon points="450,170 460,185 480,190 460,195 450,210 440,195 420,190 440,185"
           fill="white"/>

  <!-- D -->
  <path d="M120 320 L120 200 L190 200 
           Q250 200 250 260 
           Q250 320 190 320 Z"
        fill="#E8E2D6" stroke="black" stroke-width="6"/>

  <!-- A -->
  <polygon points="270,320 320,200 370,320"
           fill="#20D6C3" stroke="black" stroke-width="6"/>
  <rect x="300" y="260" width="40" height="20" fill="black"/>

  <!-- V -->
  <polygon points="390,200 440,320 490,200"
           fill="#FF1E4D" stroke="black" stroke-width="6"/>

  <!-- A -->
  <polygon points="510,320 560,200 610,320"
           fill="#20D6C3" stroke="black" stroke-width="6"/>
  <rect x="540" y="260" width="40" height="20" fill="black"/>

  <!-- I -->
  <rect x="640" y="200" width="40" height="120"
        fill="#C93CFF" stroke="black" stroke-width="6"/>

  <!-- STORE Text (clean bold style) -->
  <text x="200" y="420"
        font-family="Arial Black, sans-serif"
        font-size="100"
        fill="black">
    STORE
  </text>

</svg>
